<svg xmlns="http://www.w3.org/2000/svg" viewBox="0 0 538.73 90.48"><defs><style>.cls-1{fill:#e4a773;}.cls-2{fill:#b3d295;}</style></defs><g id="图层_2" data-name="图层 2"><path class="cls-1" d="M198.36,379.92" transform="translate(-28.27 -344.39)"/><path class="cls-1" d="M108.38,421.65c.35-8.59-1.19-16.47-8.16-21.31a46.1,46.1,0,0,1-8.9-7.11,54.93,54.93,0,0,1-6.17-7.93,32.15,32.15,0,0,1-2.77-4.92,29.73,29.73,0,0,1-2.15-9.31,76,76,0,0,1-.15-14.22H57.16c0,.08,2.42,16.52,6.6,27.55a50.62,50.62,0,0,0,7.48,14.07c3.58,4.46,8.61,6.81,13.22,9.15,10.42,5.29,10.2,14,10.2,14Z" transform="translate(-28.27 -344.39)"/><path class="cls-1" d="M131.05,418.86" transform="translate(-28.27 -344.39)"/><path class="cls-1" d="M63.5,419.45" transform="translate(-28.27 -344.39)"/><path class="cls-2" d="M28.27,382.19H44.33c8.35.92,12.94,4,15.57,6.56,5.79,5.64,3.62,10.21,10,16.1,4.85,4.46,7.68,3.31,13.71,9.32a35.53,35.53,0,0,1,6,7.8,33.79,33.79,0,0,1,4,12.9H79.72c-1.34-6.54-3.93-9.25-6-10.53-3.46-2.11-7.52-1.47-12.16-3.61a23.1,23.1,0,0,1-5.75-3.9.92.92,0,0,1-.14-.14c-4.44-4.38-3.88-8.08-8.37-12.83a10.71,10.71,0,0,0-5.12-3.22,9.24,9.24,0,0,0-2.24-.27c-9,0-11.64-.17-11.64-.17Z" transform="translate(-28.27 -344.39)"/><path class="cls-2" d="M101,373.28c3.36-1,6.15-2.76,9.73-3.09a16.74,16.74,0,0,1,4.66.24,19.17,19.17,0,0,1-1.64-3.44,29.29,29.29,0,0,1-1.19-6.44c-.16-1.32-.31-3-.6-6.32-.34-3.87-.45-5.31-1.53-6.81a6.3,6.3,0,0,0-2.14-1.93,8.66,8.66,0,0,0-3.15-.84,23.59,23.59,0,0,0-3-.25c-4.49,0-10.26.08-11,.09v25.89C94.24,372.32,97,374.47,101,373.28Z" transform="translate(-28.27 -344.39)"/><path class="cls-2" d="M124.31,379.39c-1.29-.56-2.57-1.16-3.87-1.75-5.79-2.61-10.28-2.38-16.06,0-3,1.23-5.86,2-9,1.08a16.09,16.09,0,0,1-4.16-2v7.47a33.35,33.35,0,0,0,6.55,7.91c3.44,3,5.5,3.52,8,6.23a21.21,21.21,0,0,1,5.08,10.26h22c.29-3.9.67-14.36-4.22-22.89A35.22,35.22,0,0,0,124.31,379.39Z" transform="translate(-28.27 -344.39)"/><path class="cls-1" d="M182.05,370.28c2.91-2.94,6.06-5.37,10.11-6.27,12.71-2.81,23.63,5.77,24,19.08.23,8.5.1,17,0,25.51,0,4.06-3.39,6.29-6.64,4.56-1.88-1-2.24-2.69-2.23-4.64,0-8.22,0-16.44,0-24.66,0-4-1.27-7.38-4.76-9.75-6-4.08-14.89-.38-15.8,6.82a86.94,86.94,0,0,0-.28,10.09c0,5.84,0,11.67,0,17.5,0,3.08-1.74,5.14-4.28,5.23s-4.57-2.05-4.58-5.19c0-8.5.05-17,0-25.51-.08-6.18-4.2-10.47-9.94-10.61-6.15-.15-10.67,4.33-10.7,10.75q-.07,12.75,0,25.5c0,2.1-.7,3.71-2.66,4.61a4.26,4.26,0,0,1-6.08-3.21,4.6,4.6,0,0,1-.11-.83c.07-9.76-.17-19.54.3-29.28.42-8.6,8.74-16,17.3-16.43A19.63,19.63,0,0,1,182.05,370.28Z" transform="translate(-28.27 -344.39)"/><path class="cls-2" d="M287.91,370.74a25.87,25.87,0,0,1,13.6-5.74,24.67,24.67,0,0,1,27.14,26.62c-.92,11.05-9.64,19.54-18,21.63-11.12,2.76-21.23-1.26-27.46-10.79a23.51,23.51,0,0,1-3.68-13.19q0-19.9,0-39.82c0-2.64,1-4.26,2.93-4.84a3.88,3.88,0,0,1,4.75,1.78,6.93,6.93,0,0,1,.74,3.4c.07,6,0,12.08,0,18.12Zm15.9,34.69A16,16,0,1,0,287.93,389,15.89,15.89,0,0,0,303.81,405.43Z" transform="translate(-28.27 -344.39)"/><path class="cls-2" d="M502.81,370.7c0-7.43,0-14.38,0-21.33,0-3,1.65-5,4.2-5s4.3,2.07,4.3,5c0,13.41.11,26.83,0,40.24a24.67,24.67,0,0,1-48.84,4.76c-2.16-9.92,2-19.8,10.9-25.66a24.82,24.82,0,0,1,27.43.54Zm-16.43,34.73a16,16,0,1,0,.25-32,16,16,0,0,0-.25,32Z" transform="translate(-28.27 -344.39)"/><path class="cls-2" d="M440.3,370.41c0-7,0-13.86,0-20.73a8.55,8.55,0,0,1,.14-2.09,4.27,4.27,0,0,1,4.22-3.17,4.39,4.39,0,0,1,4,3.42,7.74,7.74,0,0,1,.12,1.67c0,13.34.07,26.68,0,40a24.62,24.62,0,1,1-49.21-1.09c.42-9.68,5.14-16.73,13.61-21,8.68-4.33,17.3-3.44,25.38,2,.4.27.79.57,1.19.85C439.83,370.38,439.91,370.36,440.3,370.41Zm-16.12,35a16,16,0,1,0-16.07-15.78A15.86,15.86,0,0,0,424.18,405.45Z" transform="translate(-28.27 -344.39)"/><path class="cls-1" d="M248,413.94c-6.06-.28-12.56-1.47-18-6-2.25-1.87-2.6-4.35-1-6.23,1.93-2.29,4.72-2.71,6.86-.68,4.51,4.29,9.86,5.43,15.78,4.64a16.85,16.85,0,0,0,4.21-1.25,5,5,0,0,0,.33-9.26c-3.44-1.34-7.08-2.15-10.56-3.38s-7.22-2.17-10.24-4.15c-7.26-4.75-7.22-13.84-.28-19.06,8.13-6.14,23.43-4.8,30.15,2.62,1.9,2.09,2.2,3.62,1.05,5.25s-3.48,2-5.73,1a6.57,6.57,0,0,1-1.58-1c-4.63-4-10-4.42-15.67-3.1-2.17.5-4.12,1.6-4.56,4.12a4.3,4.3,0,0,0,3,5c3.88,1.37,8,2.12,11.86,3.51,3.53,1.27,7.37,2.43,10.19,4.73,6.82,5.58,4.86,16.55-3.3,20.72C256.85,413.32,252.86,413.9,248,413.94Z" transform="translate(-28.27 -344.39)"/><path class="cls-2" d="M544.49,399.77c1.32-2.95,2.46-5.5,3.59-8l10.38-23.26c.71-1.57,1.48-3,3.52-3.19,3.86-.27,6,2.56,4.54,6.08-2.27,5.28-4.67,10.5-7,15.75q-9.94,22.31-19.9,44.59c-1.25,2.8-2.73,3.63-5,3-3-.9-4.08-3-2.78-6,2.61-6,5.24-12,8-17.88a3.7,3.7,0,0,0-.13-3.71c-6.32-11.9-12.58-23.84-18.89-35.75a3.81,3.81,0,0,1,.31-4.51,3.62,3.62,0,0,1,4.33-1.34,7.07,7.07,0,0,1,3.19,3.05c4.32,8.27,8.48,16.63,12.69,25Z" transform="translate(-28.27 -344.39)"/><path class="cls-2" d="M385.78,396c-1.86,10.66-11.72,18.35-22.49,18.12-11.12-.23-20.39-8.08-21.9-19-.58-4.21-.33-8.54-.38-12.82s0-8.29,0-12.43c0-2.88,1.79-4.89,4.34-4.95s4.51,2.12,4.51,5c0,7.09,0,14.19,0,21.28a13.76,13.76,0,0,0,27.18,3.32,19.44,19.44,0,0,0,.36-4.39c0-6.74,0-13.49,0-20.23,0-3.23,2.2-5.32,4.94-4.95a4.41,4.41,0,0,1,3.9,4.49c.06,4.08,0,8.15,0,12.23A103.64,103.64,0,0,1,385.78,396Z" transform="translate(-28.27 -344.39)"/><path class="cls-1" d="M111.62,425.09" transform="translate(-28.27 -344.39)"/><path class="cls-2" d="M521.61,465" transform="translate(-28.27 -344.39)"/></g><g id="图层_3" data-name="图层 3"><path class="cls-2" d="M489.83,170.66" transform="translate(-28.27 -344.39)"/></g></svg>