<svg width="539" height="91" xmlns="http://www.w3.org/2000/svg" xmlns:xlink="http://www.w3.org/1999/xlink" xml:space="preserve" overflow="hidden"><defs><clipPath id="clip0"><rect x="370" y="374" width="539" height="91"/></clipPath><clipPath id="clip1"><rect x="370" y="374" width="539" height="91"/></clipPath><clipPath id="clip2"><rect x="371" y="375" width="538" height="90"/></clipPath><clipPath id="clip3"><rect x="371" y="375" width="538" height="90"/></clipPath><clipPath id="clip4"><rect x="371" y="375" width="538" height="90"/></clipPath></defs><g clip-path="url(#clip0)" transform="translate(-370 -374)"><g clip-path="url(#clip1)"><g clip-path="url(#clip2)"><g clip-path="url(#clip3)"><g clip-path="url(#clip4)"><path d="M107.605 418.635C107.953 410.106 106.424 402.283 99.5034 397.477 96.2774 395.499 93.3093 393.128 90.667 390.418 88.3888 387.986 86.3383 385.351 84.5411 382.545 83.4829 381 82.5627 379.366 81.7909 377.66 80.5857 374.714 79.8648 371.593 79.6563 368.417 79.1655 363.726 79.1157 358.999 79.5074 354.298L56.7513 354.298C56.7513 354.378 59.154 370.7 63.3041 381.651 65.0266 386.671 67.5331 391.386 70.7306 395.621 74.285 400.049 79.279 402.382 83.8561 404.705 94.2016 409.957 93.9831 418.605 93.9831 418.605Z" fill="#E4A773" fill-rule="nonzero" fill-opacity="1" transform="matrix(1 0 0 1.00186 344.493 32.437)"/><path d="M28.0679 379.457 44.013 379.457C52.3033 380.371 56.8605 383.429 59.4717 385.97 65.2203 391.57 63.0658 396.107 69.4002 401.955 74.2155 406.383 77.0253 405.241 83.0121 411.208 85.3475 413.501 87.3524 416.107 88.9692 418.953 91.1415 422.911 92.4922 427.267 92.9406 431.76L79.15 431.76C77.8195 425.267 75.2481 422.577 73.1929 421.306 69.7576 419.211 65.7266 419.846 61.1198 417.722 59.0325 416.726 57.1078 415.421 55.4109 413.849 55.3597 413.808 55.3131 413.762 55.2719 413.71 50.8637 409.362 51.4197 405.688 46.9618 400.972 45.6097 399.44 43.8448 398.33 41.8784 397.775 41.1508 397.595 40.4039 397.505 39.6544 397.507 30.7188 397.507 28.0976 397.338 28.0976 397.338Z" fill="#B3D295" fill-rule="nonzero" fill-opacity="1" transform="matrix(1 0 0 1.00186 344.493 32.437)"/><path d="M100.278 370.611C103.614 369.618 106.384 367.871 109.938 367.543 111.484 367.406 113.041 367.486 114.565 367.781 113.91 366.7 113.365 365.556 112.937 364.366 112.305 362.285 111.909 360.141 111.755 357.972 111.596 356.661 111.447 354.993 111.159 351.697 110.822 347.855 110.713 346.425 109.64 344.936 109.09 344.142 108.362 343.486 107.516 343.02 106.535 342.546 105.474 342.263 104.388 342.186 103.402 342.04 102.407 341.957 101.41 341.937 96.9518 341.937 91.223 342.017 90.4883 342.027L90.4883 367.732C93.5661 369.658 96.3064 371.792 100.278 370.611Z" fill="#B3D295" fill-rule="nonzero" fill-opacity="1" transform="matrix(1 0 0 1.00186 344.493 32.437)"/><path d="M123.421 376.677C122.14 376.121 120.869 375.525 119.579 374.94 113.83 372.348 109.372 372.577 103.634 374.94 100.655 376.161 97.8155 376.925 94.698 376.012 93.233 375.552 91.8419 374.883 90.5677 374.026L90.5677 381.443C92.317 384.381 94.5107 387.03 97.0709 389.296 100.486 392.275 102.532 392.791 105.014 395.482 107.597 398.351 109.342 401.875 110.057 405.668L131.9 405.668C132.188 401.796 132.565 391.411 127.71 382.942 126.512 380.704 125.074 378.604 123.421 376.677Z" fill="#B3D295" fill-rule="nonzero" fill-opacity="1" transform="matrix(1 0 0 1.00186 344.493 32.437)"/><path d="M180.748 367.632C183.637 364.713 186.765 362.301 190.786 361.407 203.405 358.617 214.247 367.136 214.614 380.351 214.843 388.79 214.714 397.229 214.614 405.678 214.614 409.709 211.249 411.923 208.022 410.206 206.155 409.213 205.798 407.535 205.808 405.599 205.808 397.438 205.808 389.276 205.808 381.115 205.808 377.144 204.547 373.788 201.082 371.435 195.125 367.384 186.298 371.058 185.395 378.206 185.108 381.537 185.015 384.882 185.117 388.224 185.117 394.022 185.117 399.811 185.117 405.599 185.117 408.657 183.389 410.702 180.867 410.792 178.346 410.881 176.33 408.756 176.32 405.639 176.32 397.199 176.37 388.76 176.32 380.311 176.241 374.175 172.15 369.916 166.451 369.777 160.345 369.628 155.858 374.076 155.828 380.45 155.781 388.889 155.781 397.328 155.828 405.768 155.828 407.853 155.133 409.451 153.187 410.345 151.087 411.368 148.555 410.494 147.532 408.394 147.342 408.004 147.213 407.587 147.15 407.158 147.089 406.887 147.052 406.611 147.041 406.334 147.111 396.643 146.872 386.933 147.339 377.263 147.756 368.724 156.016 361.377 164.515 360.95 170.68 360.477 176.703 362.956 180.748 367.632Z" fill="#E4A773" fill-rule="nonzero" fill-opacity="1" transform="matrix(1 0 0 1.00186 344.493 32.437)"/><path d="M285.851 368.089C289.703 364.918 294.395 362.938 299.354 362.39 312.809 360.987 324.853 370.757 326.255 384.212 326.415 385.743 326.43 387.286 326.3 388.82 325.387 399.791 316.729 408.22 308.429 410.295 297.388 413.035 287.351 409.044 281.165 399.582 278.675 395.676 277.403 391.118 277.511 386.487 277.511 373.315 277.511 360.136 277.511 346.951 277.511 344.33 278.504 342.722 280.42 342.146 282.213 341.484 284.22 342.236 285.136 343.913 285.664 344.958 285.917 346.119 285.871 347.289 285.941 353.246 285.871 359.282 285.871 365.279ZM301.638 402.531C310.411 402.594 317.574 395.532 317.636 386.759 317.699 377.986 310.638 370.823 301.864 370.761 293.214 370.699 286.104 377.571 285.871 386.218 285.575 394.926 292.394 402.226 301.102 402.522 301.281 402.528 301.459 402.531 301.638 402.531Z" fill="#B3D295" fill-rule="nonzero" fill-opacity="1" transform="matrix(1 0 0 1.00186 344.493 32.437)"/><path d="M499.215 368.049C499.215 360.672 499.215 353.772 499.215 346.872 499.215 343.893 500.853 341.908 503.385 341.908 505.916 341.908 507.654 343.963 507.654 346.872 507.654 360.186 507.763 373.51 507.654 386.824 507.556 400.351 496.511 411.238 482.984 411.14 471.413 411.056 461.479 402.887 459.163 391.55 457.019 381.701 461.149 371.892 469.985 366.074 478.346 360.763 489.074 360.974 497.219 366.61ZM482.902 402.531C491.676 402.6 498.843 395.543 498.912 386.77 498.98 377.996 491.924 370.828 483.15 370.76 474.377 370.691 467.209 377.748 467.141 386.521 467.072 395.295 474.129 402.462 482.902 402.531Z" fill="#B3D295" fill-rule="nonzero" fill-opacity="1" transform="matrix(1 0 0 1.00186 344.493 32.437)"/><path d="M437.152 367.761C437.152 360.811 437.152 354 437.152 347.18 437.113 346.485 437.159 345.788 437.291 345.105 437.794 343.215 439.525 341.914 441.48 341.957 443.411 342.082 445.028 343.465 445.452 345.353 445.551 345.9 445.591 346.455 445.571 347.011 445.571 360.255 445.641 373.5 445.571 386.725 445.636 400.225 434.746 411.221 421.246 411.287 407.746 411.352 396.749 400.461 396.684 386.961 396.682 386.522 396.691 386.082 396.713 385.643 397.13 376.032 401.816 369.032 410.226 364.793 418.843 360.494 427.402 361.377 435.424 366.778 435.821 367.047 436.208 367.344 436.606 367.622 436.685 367.732 436.764 367.712 437.152 367.761ZM421.147 402.511C429.92 402.472 437.001 395.328 436.961 386.555 436.922 377.781 429.778 370.701 421.005 370.74 412.232 370.779 405.151 377.923 405.19 386.697 405.191 386.746 405.191 386.795 405.192 386.844 405.213 395.541 412.28 402.573 420.977 402.552 421.033 402.552 421.09 402.552 421.147 402.551Z" fill="#B3D295" fill-rule="nonzero" fill-opacity="1" transform="matrix(1 0 0 1.00186 344.493 32.437)"/><path d="M246.227 410.98C240.21 410.702 233.757 409.521 228.355 405.023 226.121 403.166 225.774 400.704 227.363 398.838 229.279 396.564 232.049 396.147 234.173 398.162 238.651 402.422 243.963 403.554 249.841 402.769 251.282 402.54 252.687 402.122 254.021 401.528 256.596 400.588 257.922 397.738 256.982 395.163 256.522 393.903 255.572 392.883 254.348 392.334 250.933 391.004 247.319 390.2 243.864 388.979 240.409 387.757 236.695 386.824 233.697 384.858 226.489 380.142 226.529 371.117 233.419 365.935 241.491 359.838 256.681 361.169 263.353 368.536 265.24 370.611 265.538 372.13 264.396 373.748 263.254 375.367 260.941 375.734 258.707 374.741 258.139 374.487 257.611 374.152 257.138 373.748 252.541 369.777 247.21 369.36 241.58 370.67 239.426 371.167 237.49 372.259 237.053 374.761 236.601 376.939 237.897 379.099 240.031 379.725 243.884 381.085 247.974 381.83 251.806 383.21 255.311 384.471 259.124 385.623 261.924 387.906 268.695 393.446 266.749 404.338 258.647 408.478 255.013 410.365 251.052 410.94 246.227 410.98Z" fill="#E4A773" fill-rule="nonzero" fill-opacity="1" transform="matrix(1 0 0 1.00186 344.493 32.437)"/><path d="M540.597 396.911C541.907 393.983 543.039 391.451 544.161 388.969L554.467 365.875C555.172 364.316 555.936 362.896 557.962 362.708 561.794 362.44 563.919 365.249 562.469 368.744 560.215 373.987 557.832 379.169 555.519 384.382 548.94 399.149 542.354 413.906 535.761 428.653 534.52 431.433 533.051 432.257 530.797 431.631 527.819 430.738 526.746 428.653 528.037 425.674 530.628 419.717 533.24 413.76 535.98 407.922 536.601 406.76 536.551 405.355 535.851 404.239 529.576 392.424 523.361 380.569 517.096 368.744 516.206 367.346 516.331 365.53 517.404 364.267 518.347 362.87 520.135 362.317 521.703 362.936 523.055 363.582 524.164 364.643 524.87 365.964 529.159 374.175 533.289 382.475 537.469 390.786Z" fill="#B3D295" fill-rule="nonzero" fill-opacity="1" transform="matrix(1 0 0 1.00186 344.493 32.437)"/><path d="M383.021 393.168C381.175 403.752 371.385 411.387 360.692 411.159 349.652 410.931 340.448 403.137 338.949 392.295 338.373 388.115 338.621 383.816 338.572 379.566 338.522 375.317 338.572 371.336 338.572 367.225 338.572 364.366 340.349 362.37 342.881 362.311 345.412 362.251 347.358 364.415 347.358 367.275 347.358 374.314 347.358 381.363 347.358 388.403 347.197 395.946 353.182 402.192 360.725 402.353 367.22 402.492 372.915 398.037 374.344 391.699 374.628 390.264 374.748 388.802 374.701 387.34 374.701 380.649 374.701 373.947 374.701 367.255 374.701 364.048 376.886 361.973 379.606 362.34 381.855 362.602 383.534 364.535 383.478 366.798 383.538 370.849 383.478 374.89 383.478 378.941 383.655 383.688 383.502 388.442 383.021 393.168Z" fill="#B3D295" fill-rule="nonzero" fill-opacity="1" transform="matrix(1 0 0 1.00186 344.493 32.437)"/></g></g></g></g></g></svg>